<svg xmlns="http://www.w3.org/2000/svg" xmlns:xlink="http://www.w3.org/1999/xlink" width="500" zoomAndPan="magnify" viewBox="0 0 375 374.999991" height="500" preserveAspectRatio="xMidYMid meet" version="1.0"><defs><clipPath id="id1"><path d="M 78.28125 0 L 296.53125 0 L 296.53125 375 L 78.28125 375 Z M 78.28125 0 " clip-rule="nonzero"/></clipPath></defs><g clip-path="url(#id1)"><path fill="rgb(95.689392%, 43.139648%, 70.199585%)" d="M 187.351562 162.871094 C 157.546875 162.871094 133.300781 138.605469 133.300781 108.769531 C 133.300781 78.941406 157.546875 54.667969 187.351562 54.667969 C 217.160156 54.667969 241.410156 78.941406 241.410156 108.769531 C 241.410156 138.605469 217.160156 162.871094 187.351562 162.871094 Z M 159.730469 213.996094 L 159.730469 266.910156 L 118.746094 266.910156 L 118.746094 322.199219 L 159.730469 322.199219 L 159.730469 374.921875 L 214.972656 374.921875 L 214.972656 322.199219 L 255.964844 322.199219 L 255.964844 266.910156 L 214.972656 266.910156 L 214.972656 213.996094 C 261.582031 201.734375 296.058594 159.210938 296.058594 108.769531 C 296.058594 48.777344 247.292969 -0.0234375 187.351562 -0.0234375 C 127.414062 -0.0234375 78.648438 48.777344 78.648438 108.769531 C 78.648438 159.210938 113.128906 201.734375 159.730469 213.996094 " fill-opacity="1" fill-rule="nonzero"/></g></svg>