<svg xmlns="http://www.w3.org/2000/svg" xmlns:xlink="http://www.w3.org/1999/xlink" width="500" zoomAndPan="magnify" viewBox="0 0 375 374.999991" height="500" preserveAspectRatio="xMidYMid meet" version="1.0"><path fill="rgb(12.939453%, 58.81958%, 95.289612%)" d="M 345.546875 -0.0195312 L 375.015625 29.4375 L 212.683594 191.816406 L 183.214844 162.355469 Z M 345.546875 -0.0195312 " fill-opacity="1" fill-rule="nonzero"/><path fill="rgb(12.939453%, 58.81958%, 95.289612%)" d="M 125 375 C 91.605469 375 60.21875 362 36.613281 338.386719 C 13 314.78125 0 283.386719 0 250 C 0 216.613281 13 185.21875 36.613281 161.613281 C 60.21875 138 91.605469 125 125 125 C 158.394531 125 189.78125 138 213.386719 161.613281 C 262.136719 210.355469 262.136719 289.65625 213.386719 338.394531 C 189.769531 362 158.386719 375 125 375 Z M 125 166.667969 C 102.738281 166.667969 81.8125 175.332031 66.074219 191.074219 C 33.582031 223.5625 33.582031 276.4375 66.074219 308.925781 C 81.8125 324.667969 102.730469 333.332031 125 333.332031 C 147.261719 333.332031 168.1875 324.667969 183.925781 308.925781 C 216.417969 276.4375 216.417969 223.5625 183.925781 191.074219 C 168.1875 175.332031 147.261719 166.667969 125 166.667969 Z M 125 166.667969 " fill-opacity="1" fill-rule="nonzero"/><path fill="rgb(12.939453%, 58.81958%, 95.289612%)" d="M 197.917969 0 L 375 0 L 375 41.667969 L 197.917969 41.667969 Z M 197.917969 0 " fill-opacity="1" fill-rule="nonzero"/><path fill="rgb(12.939453%, 58.81958%, 95.289612%)" d="M 333.332031 0 L 375 0 L 375 177.082031 L 333.332031 177.082031 Z M 333.332031 0 " fill-opacity="1" fill-rule="nonzero"/></svg>